/vscmnt/brussel_pixiu_data/_data_brussel/112/vsc11236/PredSimResults/SUBJ04mtu3D/worker7.mot
version=1
nRows=4
nColumns=50
inDegrees=yes
endheader
                time	         pelvis_tilt	         pelvis_list	     pelvis_rotation	           pelvis_tx	           pelvis_ty	           pelvis_tz	       hip_flexion_r	     hip_adduction_r	      hip_rotation_r	        knee_angle_r	       ankle_angle_r	         mtp_angle_r	       hip_flexion_l	     hip_adduction_l	      hip_rotation_l	        knee_angle_l	       ankle_angle_l	         mtp_angle_l	    lumbar_extension	      lumbar_bending	     lumbar_rotation	 ercspn_r/activation	 intobl_r/activation	 extobl_r/activation	    abd_r/activation	    add_r/activation	hamstrings_r/activation	bifemsh_r/activation	glut_max_r/activation	iliopsoas_r/activation	rect_fem_r/activation	  vasti_r/activation	gastroc_r/activation	 soleus_r/activation	tib_ant_r/activation	 ercspn_l/activation	 intobl_l/activation	 extobl_l/activation	    abd_l/activation	    add_l/activation	hamstrings_l/activation	bifemsh_l/activation	glut_max_l/activation	iliopsoas_l/activation	rect_fem_l/activation	  vasti_l/activation	gastroc_l/activation	 soleus_l/activation	tib_ant_l/activation	
          1.32220641	         -2.40282446	          0.83573703	          8.29381747	          1.24287402	          0.88052644	         -0.01210219	         29.42409468	         -4.06801705	        -10.70642515	        -10.98781724	          4.68451110	          0.23688437	        -12.42522791	         -0.33448261	         -9.18016228	         -8.45855863	         12.40540436	         21.71119323	        -13.63049484	         -3.58017949	         -8.02778475	          0.03831747	          0.22335363	          0.01817581	          0.01000064	          0.29606673	          0.07287788	          0.04476895	          0.02880245	          0.15747375	          0.02597037	          0.02555668	          0.01001121	          0.01385912	          0.30844578	          0.03765097	          0.01000045	          0.01000059	          0.04968798	          0.01000735	          0.02139969	          0.17397414	          0.01514113	          0.01219409	          0.01000610	          0.01000154	          0.27133754	          0.25553791	          0.01000026	
          1.33542847	         -2.49513505	          0.81617545	          8.05235921	          1.25882860	          0.87827402	         -0.01154308	         29.27483492	         -3.94337563	        -10.82802665	        -12.36449964	          4.42627550	          0.22453342	        -13.10771865	         -0.48491027	         -9.84822284	         -9.03689109	         12.04217304	         23.16377567	        -13.11453201	         -2.97239807	         -8.13579290	          0.03139894	          0.22732055	          0.01489381	          0.02608684	          0.24260620	          0.06883791	          0.03668824	          0.05155235	          0.12903807	          0.02128095	          0.02094433	          0.01220779	          0.01223933	          0.33743400	          0.04256503	          0.01000029	          0.01000162	          0.04071564	          0.01000730	          0.01754551	          0.14256019	          0.01240718	          0.01001713	          0.01000237	          0.01000159	          0.23767187	          0.24700054	          0.01000026	
          1.34865054	         -2.57268035	          0.74112951	          7.75771264	          1.27505156	          0.87628793	         -0.01088465	         29.06912928	         -3.78778058	        -10.97622419	        -13.61721798	          3.94136215	          0.21687625	        -13.69115861	         -0.70898657	        -10.55271555	         -9.84681935	         11.58092468	         24.64312483	        -12.57903411	         -2.28338759	         -8.20988858	          0.02859897	          0.18627268	          0.01220451	          0.04624694	          0.21919165	          0.07088332	          0.03006697	          0.04224542	          0.10573715	          0.01743835	          0.08240261	          0.01000433	          0.01002951	          0.36899372	          0.04839454	          0.01000021	          0.01000065	          0.03336347	          0.01000344	          0.01438648	          0.11681825	          0.01016696	          0.01787829	          0.01000605	          0.01000143	          0.19475471	          0.23182694	          0.01000029	
          1.36187260	         -2.63638544	          0.62735287	          7.41208770	          1.29138946	          0.87476396	         -0.01010499	         28.81326573	         -3.59871594	        -11.21908221	        -14.78529938	          3.45075253	          0.19353480	        -14.10921030	         -1.00182396	        -11.29155336	        -10.98364664	         10.97198497	         26.15313169	        -12.04797557	         -1.53772947	         -8.24823388	          0.03276574	          0.15263664	          0.01000112	          0.06801474	          0.19682846	          0.07040105	          0.02464137	          0.03462100	          0.08664377	          0.01428970	          0.14975369	          0.01000278	          0.01000123	          0.39716471	          0.05979722	          0.01000022	          0.01000064	          0.02733892	          0.01000334	          0.01181271	          0.09572438	          0.01000053	          0.01465288	          0.01000428	          0.01000101	          0.15958702	          0.21368988	          0.01000028	
